# xmcd CD database file
#
# Track frame offsets:
#	150
#	18052
#	41700
#	64865
#	89437
#	110062
#	131535
#	150550
#	170835
#	189937
#	212237
#
# Disc length: 3117 seconds
#
# Revision: 0
# Processed by: cddbd v1.5.1PL0 Copyright (c) Steve Scherf et al.
# Submitted via: CDex 1.51
#
DISCID=950c2b0b
DTITLE=村田和人 - 空を泳ぐ日
DYEAR=1900
DGENRE=J-Pop
TTITLE0=サイクリングに行こう
TTITLE1=Paradise Road
TTITLE2=湘南ドリーミング
TTITLE3=この夜の片隅で
TTITLE4=Welcome to 3rd World
TTITLE5=友情の代償
TTITLE6=電話しなくても
TTITLE7=水彩の海
TTITLE8=空を泳ぐ日
TTITLE9=Up to Date
TTITLE10=優しいなんて誤解
EXTD=
EXTT0=
EXTT1=
EXTT2=
EXTT3=
EXTT4=
EXTT5=
EXTT6=
EXTT7=
EXTT8=
EXTT9=
EXTT10=
PLAYORDER=
